<?xml version="1.0" encoding="utf-8"?>
<!-- Generator: Adobe Illustrator 25.4.1, SVG Export Plug-In . SVG Version: 6.00 Build 0)  -->
<svg version="1.1" id="Capa_1" xmlns="http://www.w3.org/2000/svg" xmlns:xlink="http://www.w3.org/1999/xlink" x="0px" y="0px"
	 viewBox="0 0 737.6 125.1" style="enable-background:new 0 0 737.6 125.1;" xml:space="preserve">
<style type="text/css">
	.st0{fill:#F8B500;}
	.st1{fill:#FFFFFF;}
</style>
<path d="M406.5,62.1c0-18.9,0-37.9,0-56.8c0-3.2-0.1-5.4,4.4-5.3c4.1,0.1,4.8,1.5,4.8,5.1c-0.2,15.8,0.1,31.6-0.2,47.4
	c-0.1,4.1,1.2,5.2,5.3,5.2c24.4-0.2,48.9-0.2,73.3,0c4.7,0.1,5.4-1.6,5.3-5.7c-0.2-15.8,0-31.6-0.2-47.4c0-3.6,0.9-4.7,4.5-4.6
	c3.3,0.1,4.8,0.6,4.8,4.5c-0.1,38.7-0.1,77.3,0,116c0,3.9-1.5,4.4-4.8,4.5c-3.7,0.1-4.6-1-4.5-4.6c0.2-16.6,0-33.2,0.2-49.8
	c0.1-4-1-5.3-5.1-5.3c-24.4,0.2-48.9,0.2-73.3,0c-4.5,0-5.5,1.3-5.5,5.6c0.3,16.4,0,32.8,0.2,49.2c0.1,4.1-1.4,4.7-5,4.8
	c-4.2,0.2-4.2-1.8-4.2-4.9C406.5,100.8,406.5,81.5,406.5,62.1z"/>
<path d="M209.9,60.7c24.5,5.6,29.8,24.5,25.3,41.5c-2.6,9.7-9.6,15.3-18.6,18.8c-7,2.6-14.4,3.9-21.8,3.9c-18.4,0-36.8,0-55.2,0
	c-3.1,0-5.1,0-5-4.2s2.3-3.7,4.9-3.7c20.3-0.2,40.7,0.6,61-0.4c4.1-0.3,8.2-1.2,12-2.7c9.8-3.7,15-11.4,15-22.2
	c0.1-11.2-4.5-18.3-14.4-22.5c-8.3-3.5-17.1-3.6-25.9-3.7c-15.9-0.2-31.7-0.1-47.6,0c-3.2,0-5-0.3-5-4.3c0-4.4,2.7-3.4,5.1-3.4
	c16.8-0.1,33.6-0.1,50.5-0.2c5.5,0,10.9-1.1,16-3.1c9.6-3.9,14.4-11,14.7-21.2c0.2-9.9-4.2-17.1-13.3-21.5
	c-6.2-2.9-12.7-3.8-19.4-3.8c-16-0.1-32.1,0-48.1,0c-2.7,0-5.3,0.7-5.4-3.8s2.3-4,5.1-4h50.5c7.1-0.1,14.1,1.2,20.6,3.9
	c12,4.9,18.9,13.8,19.3,26.8c0.4,12.6-5.2,22.2-16.6,28C212.8,59.3,211.9,59.7,209.9,60.7z"/>
<path class="st0" d="M262.7,62.9V10.2c0-3.2-0.8-6.9,2.8-8.9s5.9,0.6,8.5,2.2c29.6,17.8,59.2,35.7,88.7,53.5c7,4.2,7,7.6,0.1,11.8
	c-29.7,18-59.5,35.9-89.2,53.8c-2.5,1.5-4.9,3.7-8.1,2c-3.4-1.8-2.9-5.2-2.9-8.3C262.7,98.4,262.7,80.6,262.7,62.9z"/>
<path d="M737.6,124.2c-7.2,2.5-10.2-0.5-12.8-6.4c-15.3-34.3-31.1-68.4-46.7-102.5c-0.6-1.3-1.2-2.7-2.3-4.9c-2.7,5.9-5,10.9-7.3,16
	l-42.8,94c-0.7,1.5-0.8,3.9-2.7,4.2c-2.6,0.4-6,0.9-8-0.3c-1.7-1.1,0.8-3.7,1.6-5.5C634,80.9,651.4,43.1,668.9,5.2
	c1.4-3.2,2.8-5.3,7.1-5.2s5.5,2.3,6.9,5.5c17.6,38.4,35.3,76.7,53,115C736.5,121.7,737.1,123,737.6,124.2z"/>
<path d="M567.1,62.6c0-19.1,0.1-38.2,0-57.3c0-3.3,0.2-5.2,4.5-5.2s4.6,1.8,4.6,5.2c-0.1,38.2-0.1,76.4,0,114.6
	c0,3.3-0.1,5.3-4.5,5.2c-4.2,0-4.6-1.7-4.6-5.2C567.1,100.8,567.1,81.7,567.1,62.6z"/>
<path d="M40.9,0.2h35.7c2.7,0,4.8-0.2,4.8,3.8c-0.1,3.6-1.1,4.6-4.7,4.6c-24-0.2-48-0.2-72,0C1.2,8.5,0.1,7.7,0,4
	C0,0.2,1.8,0.1,4.6,0.2C16.7,0.3,28.8,0.2,40.9,0.2z"/>
<path d="M40.3,124.9H5.1c-2.7,0-5.1,0.5-5.1-3.9s2.2-4.4,5.4-4.4c23.4,0.1,46.8,0,70.2,0c2.8,0,5.7-1,5.8,4c0.1,5.4-3.1,4.2-6,4.2
	C63.7,124.9,52,124.9,40.3,124.9z"/>
<path d="M40.8,65.5c-12.1,0-24.2-0.1-36.4,0.1c-3.2,0-4.4-0.8-4.4-4.2s1.3-3.8,4.1-3.7c24.3,0.1,48.5,0.1,72.8,0
	c3.1,0,4.4,0.6,4.4,4.1c0,3.9-2,3.9-4.8,3.8C64.7,65.5,52.8,65.5,40.8,65.5z"/>
<path class="st1" d="M270.5,115.7V9.9l87.7,52.9L270.5,115.7z"/>
<path class="st0" d="M287.5,36.8c2,0.1,3.8,0.8,5.4,2c10.2,6.1,20.4,12.3,30.5,18.4c6.6,4,6.6,7.4-0.1,11.4
	c-10.3,6.3-20.7,12.5-31.1,18.6c-5.8,3.5-8.9,1.8-9-4.8c-0.1-13.1,0-26.1,0-39.2C283.2,39.8,284,37.1,287.5,36.8z"/>
</svg>
