<svg id="Capa_1" data-name="Capa 1" xmlns="http://www.w3.org/2000/svg" viewBox="0 0 737.62 125.08"><defs><style>.cls-1{fill:#f4f4f4;}.cls-2{fill:#f5f5f5;}.cls-3{fill:#f8b500;}.cls-4{fill:#f2f2f2;}.cls-5{fill:#f0f0f0;}.cls-6{fill:#222;}</style></defs><path class="cls-1" d="M1450.26,231.28c0-18.94,0-37.88,0-56.81,0-3.22-.11-5.38,4.41-5.29,4.09.09,4.8,1.48,4.76,5.1-.15,15.82.08,31.64-.15,47.45-.07,4.15,1.24,5.19,5.28,5.16,24.45-.17,48.89-.23,73.35,0,4.7.05,5.37-1.56,5.31-5.68-.22-15.81,0-31.63-.18-47.45,0-3.6.89-4.66,4.53-4.56,3.35.1,4.79.6,4.78,4.47q-.22,58,0,116c0,3.89-1.46,4.35-4.79,4.45-3.67.12-4.56-1-4.52-4.57.2-16.59,0-33.19.18-49.79.06-4-1-5.29-5.13-5.26q-36.67.3-73.35,0c-4.51,0-5.54,1.32-5.47,5.63.26,16.39,0,32.8.2,49.19.06,4.06-1.4,4.68-5,4.84-4.16.17-4.2-1.82-4.18-4.9Q1450.25,260.28,1450.26,231.28Z" transform="translate(-1043.74 -169.15)"/><path class="cls-2" d="M1253.66,229.83c24.49,5.65,29.84,24.53,25.35,41.5-2.57,9.66-9.64,15.34-18.61,18.81a60.12,60.12,0,0,1-21.81,3.87q-27.58,0-55.17.05c-3.09,0-5.09,0-5-4.18s2.28-3.68,4.92-3.71c20.34-.24,40.68.58,61-.44a39.54,39.54,0,0,0,12-2.7c9.8-3.68,15-11.42,15-22.17.07-11.2-4.5-18.27-14.43-22.46-8.32-3.5-17.14-3.65-25.91-3.74-15.86-.16-31.7-.1-47.55,0-3.15,0-5-.26-5-4.28,0-4.35,2.74-3.35,5.08-3.36,16.82-.1,33.64-.07,50.47-.25a43.22,43.22,0,0,0,16-3.1c9.57-3.86,14.41-11,14.65-21.17.23-9.93-4.2-17.13-13.29-21.49-6.15-2.95-12.69-3.78-19.36-3.81-16-.07-32.09,0-48.13,0-2.69,0-5.34.66-5.43-3.83s2.32-4,5.13-4h50.48a54,54,0,0,1,20.6,3.86c12,4.9,18.93,13.79,19.32,26.78.38,12.57-5.17,22.17-16.62,28C1256.49,228.45,1255.63,228.85,1253.66,229.83Z" transform="translate(-1043.74 -169.15)"/><path class="cls-3" d="M1306.41,232v-52.7c0-3.24-.76-6.9,2.83-8.95s5.92.64,8.52,2.2q44.38,26.73,88.74,53.52c7,4.23,7,7.57.09,11.75q-44.62,26.93-89.25,53.83c-2.46,1.48-4.93,3.67-8.07,2-3.37-1.83-2.86-5.25-2.87-8.34Q1306.4,258.62,1306.41,232Z" transform="translate(-1043.74 -169.15)"/><path class="cls-2" d="M1781.37,293.34c-7.18,2.52-10.21-.51-12.85-6.43-15.34-34.28-31.08-68.38-46.67-102.54-.61-1.34-1.23-2.68-2.28-4.94-2.69,5.88-5,10.95-7.35,16l-42.8,94.05c-.7,1.53-.85,3.93-2.66,4.23-2.64.44-6,.94-8-.29-1.71-1.06.8-3.72,1.62-5.53q26.07-56.77,52.22-113.5c1.45-3.16,2.76-5.29,7.09-5.24s5.51,2.32,6.94,5.46q26.46,57.55,53,115.05C1780.26,290.87,1780.83,292.1,1781.37,293.34Z" transform="translate(-1043.74 -169.15)"/><path class="cls-2" d="M1610.79,231.73c0-19.11.06-38.22,0-57.32,0-3.34.16-5.24,4.53-5.23s4.58,1.75,4.57,5.16q-.15,57.32,0,114.64c0,3.31-.1,5.27-4.5,5.22-4.21,0-4.63-1.7-4.6-5.16C1610.86,269.94,1610.79,250.83,1610.79,231.73Z" transform="translate(-1043.74 -169.15)"/><path class="cls-4" d="M1084.66,169.34h35.7c2.71,0,4.81-.19,4.75,3.78-.06,3.6-1.06,4.58-4.66,4.56q-36-.24-72,0c-3.53,0-4.62-.83-4.68-4.49-.06-3.84,1.76-3.89,4.61-3.86C1060.47,169.42,1072.58,169.34,1084.66,169.34Z" transform="translate(-1043.74 -169.15)"/><path class="cls-4" d="M1084,294h-35.12c-2.74,0-5.12.52-5.12-3.92s2.25-4.37,5.39-4.36c23.41.07,46.82,0,70.23,0,2.78,0,5.66-.95,5.77,4,.13,5.38-3.12,4.23-6,4.23Q1101.55,294.05,1084,294Z" transform="translate(-1043.74 -169.15)"/><path class="cls-5" d="M1084.56,234.65c-12.13,0-24.25-.1-36.38.06-3.25,0-4.37-.82-4.38-4.22s1.31-3.75,4.12-3.74q36.38.12,72.75,0c3.11,0,4.42.58,4.45,4.1,0,3.91-2,3.86-4.77,3.84C1108.41,234.61,1096.49,234.65,1084.56,234.65Z" transform="translate(-1043.74 -169.15)"/><path class="cls-6" d="M1314.26,284.82V179.07L1402,231.93Z" transform="translate(-1043.74 -169.15)"/><path class="cls-3" d="M1331.26,205.91a9.93,9.93,0,0,1,5.38,2q15.27,9.21,30.51,18.43c6.6,4,6.57,7.39-.1,11.43-10.33,6.26-20.67,12.51-31.08,18.64-5.85,3.45-8.93,1.8-9-4.83-.11-13.05,0-26.1,0-39.16C1326.93,208.93,1327.77,206.24,1331.26,205.91Z" transform="translate(-1043.74 -169.15)"/></svg>