<?xml version="1.0" encoding="utf-8"?>
<!-- Generator: Adobe Illustrator 25.4.1, SVG Export Plug-In . SVG Version: 6.00 Build 0)  -->
<svg version="1.1" id="Capa_1" xmlns="http://www.w3.org/2000/svg" xmlns:xlink="http://www.w3.org/1999/xlink" x="0px" y="0px"
	 viewBox="0 0 737.6 125.1" style="enable-background:new 0 0 737.6 125.1;" xml:space="preserve">
<style type="text/css">
	.st0{fill:#F8B500;}
	.st1{fill:#FFFFFF;}
</style>
<path class="st0" d="M262.7,62.9V10.2c0-3.2-0.8-6.9,2.8-8.9s5.9,0.6,8.5,2.2c29.6,17.8,59.2,35.7,88.7,53.5c7,4.2,7,7.6,0.1,11.8
	c-29.7,18-59.5,35.9-89.2,53.8c-2.5,1.5-4.9,3.7-8.1,2c-3.4-1.8-2.9-5.2-2.9-8.3C262.7,98.4,262.7,80.6,262.7,62.9z"/>
<path class="st1" d="M270.5,115.7V9.9l87.7,52.9L270.5,115.7z"/>
<path class="st0" d="M287.5,36.8c2,0.1,3.8,0.8,5.4,2c10.2,6.1,20.4,12.3,30.5,18.4c6.6,4,6.6,7.4-0.1,11.4
	c-10.3,6.3-20.7,12.5-31.1,18.6c-5.8,3.5-8.9,1.8-9-4.8c-0.1-13.1,0-26.1,0-39.2C283.2,39.8,284,37.1,287.5,36.8z"/>
</svg>
